PathFileType	4	(X/Y/Z)	/Users/FranklinZhao/OpenSimProject/Simulation/Models/Rajapogal_2015/marker_data/trc/SN001_0010_10m_01.trc
DataRate	CameraRate	NumFrames	NumMarkers	Units	OrigDataRate	OrigDataStartFrame	OrigNumFrames
200.000000	200.000000	4	72	mm	200.000000	560	641
Frame#	Time	LPSIS			RPSIS			LICR			RICR			LASIS			RASIS			STER			XPRO			C7			T4			T8			T10			RUA1			RUA2			RUA3			RUA4			RHLE			RHME			RTEMP			RHEAD			LHEAD			LTEMP			RACR			LACR			LUA1			LUA2			LUA3			LUA4			LHLE			LHME			LFA1			LFA2			LFA3			LRSP			LUSP			RFA1			RFA2			RFA3			RRSP			RUSP			LTH1			LTH2			LTH3			LTH4			LFLE			LFME			LSK1			LSK2			LSK3			LSK4			LTAM			LFAL			LFCC			LFMT1			LFMT2			LFMT5			RTH1			RTH2			RTH3			RTH4			RFLE			RFME			RSK1			RSK2			RSK3			RSK4			RFAL			RTAM			RFCC			RFMT1			RFMT2			RFMT5			
		X1	Y1	Z1	X2	Y2	Z2	X3	Y3	Z3	X4	Y4	Z4	X5	Y5	Z5	X6	Y6	Z6	X7	Y7	Z7	X8	Y8	Z8	X9	Y9	Z9	X10	Y10	Z10	X11	Y11	Z11	X12	Y12	Z12	X13	Y13	Z13	X14	Y14	Z14	X15	Y15	Z15	X16	Y16	Z16	X17	Y17	Z17	X18	Y18	Z18	X19	Y19	Z19	X20	Y20	Z20	X21	Y21	Z21	X22	Y22	Z22	X23	Y23	Z23	X24	Y24	Z24	X25	Y25	Z25	X26	Y26	Z26	X27	Y27	Z27	X28	Y28	Z28	X29	Y29	Z29	X30	Y30	Z30	X31	Y31	Z31	X32	Y32	Z32	X33	Y33	Z33	X34	Y34	Z34	X35	Y35	Z35	X36	Y36	Z36	X37	Y37	Z37	X38	Y38	Z38	X39	Y39	Z39	X40	Y40	Z40	X41	Y41	Z41	X42	Y42	Z42	X43	Y43	Z43	X44	Y44	Z44	X45	Y45	Z45	X46	Y46	Z46	X47	Y47	Z47	X48	Y48	Z48	X49	Y49	Z49	X50	Y50	Z50	X51	Y51	Z51	X52	Y52	Z52	X53	Y53	Z53	X54	Y54	Z54	X55	Y55	Z55	X56	Y56	Z56	X57	Y57	Z57	X58	Y58	Z58	X59	Y59	Z59	X60	Y60	Z60	X61	Y61	Z61	X62	Y62	Z62	X63	Y63	Z63	X64	Y64	Z64	X65	Y65	Z65	X66	Y66	Z66	X67	Y67	Z67	X68	Y68	Z68	X69	Y69	Z69	X70	Y70	Z70	X71	Y71	Z71	X72	Y72	Z72	

561	2.8	2752.893310546875	266.4140625	1003.161315917969	2747.130859375	188.1932067871094	999.949462890625	2775.40576171875	352.2790222167969	1063.382690429688	2769.5087890625	90.62383270263672	1075.929565429688	2950.079833984375	340.8092651367188	989.8997192382812	2931.928466796875	83.03532409667969	973.95166015625	2897.239501953125	237.6045532226562	1450.267700195312	2965.427001953125	226.2891235351562	1244.881469726562	2761.8193359375	238.5435791015625	1549.170776367188	2711.781005859375	247.7484436035156	1435.916870117188	2713.882568359375	228.80615234375	1303.093505859375	2719.803955078125	230.8882751464844	1258.36376953125	2773.705322265625	-13.4422492980957	1341.221069335938	2848.74755859375	-8.570996284484863	1338.224487304688	2857.778564453125	-25.12111663818359	1266.5166015625	2784.645263671875	-31.70518493652344	1257.7607421875	2818.705810546875	-39.20833587646484	1171.627685546875	2806.627685546875	40.37241744995117	1157.098266601562	2919.781494140625	167.3753051757812	1708.733642578125	2964.042236328125	201.8872375488281	1717.190795898438	2965.92626953125	283.6797180175781	1711.192016601562	2917.263427734375	321.9750061035156	1694.474853515625	2807.90673828125	53.72999572753906	1508.950317382812	2805.532470703125	427.3790283203125	1490.0234375	2830.139404296875	468.89306640625	1326.47705078125	2755.72119140625	474.9140930175781	1315.47998046875	2756.20556640625	485.9450378417969	1229.5390625	2829.705078125	478.8418579101562	1239.475952148438	2788.328369140625	482.7064208984375	1156.525512695312	2751.036376953125	414.9821472167969	1148.289306640625	2875.243408203125	452.6414489746094	935.5618896484375	2876.13037109375	499.1841125488281	941.3274536132812	2861.187744140625	470.3914184570312	910.7756958007812	2831.90673828125	442.972412109375	877.6268310546875	2817.262451171875	511.5181884765625	880.3775024414062	2944.372802734375	-92.25648498535156	1021.929443359375	2969.68505859375	-53.58419418334961	1022.161315917969	2963.197265625	-65.80857849121094	990.1444091796875	2980.8564453125	-40.04000473022461	937.7056274414062	2937.719970703125	-89.86228179931641	934.7772216796875	2959.3955078125	386.3097839355469	712.1588745117188	2908.851318359375	385.4461059570312	702.5640869140625	2920.85302734375	364.1874389648438	598.3417358398438	2985.183837890625	368.8502807617188	614.32958984375	2964.403564453125	341.7353210449219	516.4082641601562	2950.19189453125	224.4113464355469	505.3162841796875	2951.05126953125	359.7294311523438	333.5079650878906	2889.40576171875	355.6550903320312	336.1909484863281	2884.6796875	338.0213928222656	250.2191009521484	2948.8896484375	344.6096801757812	251.9418640136719	2944.910888671875	226.5812835693359	86.12472534179688	2902.687255859375	297.7723388671875	69.90957641601562	2872.622314453125	243.2749938964844	36.01025772094727	3084.8349609375	258.7359619140625	27.88667678833008	3078.330322265625	296.2913513183594	29.81706809997559	3028.96923828125	339.9378662109375	21.97502899169922	2864.78759765625	54.10795974731445	711.4981079101562	2922.369140625	44.59033966064453	698.4224853515625	2935.69580078125	52.73181533813477	612.9369506835938	2873.6708984375	68.45765686035156	610.6234741210938	2905.7802734375	74.88148498535156	506.0289916992188	2931.835205078125	192.1288604736328	478.4463806152344	2762.559326171875	71.86099243164062	425.5527648925781	2809.998779296875	59.49199295043945	392.2938537597656	2727.592529296875	81.61309051513672	323.5788879394531	2695.74072265625	87.12274169921875	378.5615844726562	2543.376953125	139.8996429443359	261.5783081054688	2590.074462890625	203.1693725585938	228.2820739746094	2514.237060546875	196.2682037353516	272.8761901855469	2565.146484375	150.8766632080078	93.12399291992188	2563.51123046875	119.8617553710938	93.43620300292969	2536.04345703125	84.19152069091797	128.0003814697266	
562	2.805	2760.99609375	267.4062805175781	1004.972778320312	2755.72900390625	189.2003021240234	1002.392944335938	2785.33447265625	352.1484680175781	1065.269897460938	2776.1796875	90.15660858154297	1077.91455078125	2958.383056640625	341.3103637695312	990.820556640625	2940.18115234375	83.51383209228516	976.0300903320312	2905.265380859375	237.3836975097656	1451.702758789062	2973.670654296875	226.4762268066406	1246.488647460938	2770.03466796875	238.3765869140625	1550.4970703125	2720.04833984375	247.9769592285156	1437.253662109375	2722.400634765625	229.3144836425781	1304.512939453125	2728.379638671875	231.6280822753906	1259.602905273438	2781.390380859375	-13.46612548828125	1342.307739257812	2856.423828125	-8.071250915527344	1338.842895507812	2865.3740234375	-24.25859451293945	1267.150634765625	2792.40576171875	-31.36662483215332	1258.5	2825.09765625	-38.05637359619141	1171.95703125	2813.37158203125	41.7088508605957	1158.102905273438	2928.413330078125	166.9081115722656	1710.001831054688	2972.364501953125	201.4296875	1718.356323242188	2974.35546875	283.2667541503906	1712.442138671875	2925.677978515625	321.6200256347656	1695.92724609375	2815.642822265625	53.6084098815918	1510.01611328125	2814.230712890625	427.322998046875	1491.9609375	2840.512451171875	469.0679321289062	1328.9755859375	2766.232666015625	475.5033264160156	1316.815551757812	2767.8681640625	486.7284545898438	1230.63671875	2841.317626953125	479.3952026367188	1241.8583984375	2800.271728515625	483.6120910644531	1158.086303710938	2763.759033203125	415.9160766601562	1149.392944335938	2891.741455078125	453.576171875	939.1199951171875	2892.596923828125	500.0444030761719	944.8787231445312	2878.30712890625	471.3518371582031	913.8524169921875	2849.207763671875	443.4015808105469	879.7874755859375	2835.412841796875	512.3271484375	882.7760009765625	2948.3876953125	-91.61870574951172	1020.234436035156	2973.4296875	-53.00956344604492	1019.625183105469	2966.263916015625	-65.33982849121094	987.8103637695312	2982.765380859375	-39.60641479492188	934.84765625	2939.78076171875	-89.47015380859375	933.354248046875	2964.966552734375	387.1849365234375	712.1586303710938	2913.761962890625	385.4629821777344	703.0048217773438	2924.46435546875	364.12060546875	598.5530395507812	2988.822998046875	368.6777648925781	614.03369140625	2966.68798828125	341.7637939453125	516.2757568359375	2951.3828125	224.3785095214844	504.9120178222656	2952.66552734375	359.8822021484375	333.7305603027344	2890.87109375	356.0052490234375	336.4647521972656	2885.7236328125	338.3873596191406	250.4776000976562	2949.901611328125	344.6335754394531	251.9889221191406	2945.244873046875	226.4408111572266	86.20619201660156	2902.63427734375	297.7455139160156	70.04332733154297	2872.671142578125	243.1423492431641	36.13219451904297	3084.82421875	258.7517395019531	27.76105308532715	3078.408935546875	296.3559875488281	29.7951831817627	3028.978515625	340.006591796875	21.97373008728027	2876.5478515625	54.42612838745117	712.5913696289062	2935.031982421875	44.6597785949707	700.7799072265625	2949.57470703125	52.62227630615234	615.4612426757812	2887.780029296875	69.05867004394531	612.3310546875	2921.85498046875	75.18886566162109	508.3002319335938	2948.707275390625	192.2962646484375	481.2339172363281	2779.8173828125	72.75395965576172	426.5536193847656	2827.62451171875	60.10927581787109	394.1213073730469	2745.80029296875	81.66313934326172	324.273193359375	2713.585693359375	87.68962097167969	378.911376953125	2562.645263671875	139.7523345947266	259.8059997558594	2610.796875	202.9694519042969	227.5208587646484	2532.5322265625	196.5682067871094	269.8279418945312	2589.03759765625	150.6016387939453	91.85177612304688	2587.9921875	119.3205108642578	92.54312896728516	2559.01025390625	84.11911010742188	126.0566253662109	
563	2.81	2769.35693359375	268.1727294921875	1005.810363769531	2764.322265625	190.3863067626953	1002.811340332031	2796.15087890625	351.2740478515625	1065.651000976562	2786.396240234375	91.92310333251953	1079.294311523438	2966.671875	341.7594604492188	991.6812133789062	2948.205810546875	83.962890625	977.7034912109375	2913.442626953125	237.2213745117188	1453.178955078125	2982.01904296875	226.7209777832031	1247.971435546875	2778.28955078125	238.1043395996094	1551.922607421875	2728.363037109375	248.1021270751953	1438.78662109375	2730.678466796875	229.8447723388672	1306.04736328125	2736.870361328125	232.1669921875	1261.263305664062	2789.143798828125	-13.39057159423828	1343.031372070312	2863.9873046875	-7.582021713256836	1339.309204101562	2872.753662109375	-23.31862831115723	1267.546752929688	2800.179443359375	-30.91044616699219	1259.5546875	2832.031494140625	-36.95882034301758	1172.437133789062	2819.7568359375	43.81259155273438	1158.963989257812	2936.704345703125	166.5093688964844	1711.009521484375	2981.042236328125	201.0752868652344	1719.555908203125	2982.842041015625	282.8348083496094	1713.681762695312	2934.176513671875	321.2451171875	1697.170043945312	2823.243896484375	53.46335601806641	1510.62890625	2822.832763671875	427.1467590332031	1493.576171875	2850.72314453125	469.2608337402344	1330.9384765625	2776.85205078125	476.1631469726562	1318.084228515625	2779.671875	487.8689575195312	1232.149780273438	2852.732421875	479.8619079589844	1244.019897460938	2813.096435546875	484.5713500976562	1159.952392578125	2776.07861328125	416.91064453125	1149.905151367188	2908.373046875	454.4586791992188	942.7044677734375	2909.173828125	501.0232543945312	948.5795288085938	2895.4326171875	472.4234313964844	917.0784912109375	2866.4033203125	443.7065124511719	882.0772094726562	2853.15869140625	513.2174682617188	885.24853515625	2951.989990234375	-90.84285736083984	1018.250427246094	2977.1181640625	-52.08975982666016	1017.102844238281	2969.257080078125	-64.94532775878906	985.6712036132812	2984.58447265625	-39.18717956542969	932.1611938476562	2941.51513671875	-89.212158203125	931.9642944335938	2969.394775390625	389.5011596679688	714.2994384765625	2918.9990234375	385.8177185058594	704.1416015625	2927.8935546875	364.6260986328125	599.3184204101562	2995.820556640625	366.0394287109375	613.04736328125	2968.066162109375	342.3277587890625	516.2030639648438	2953.216796875	224.3743591308594	505.1744384765625	2954.10400390625	359.9580383300781	333.7342224121094	2892.247314453125	356.3636474609375	336.70166015625	2886.84130859375	338.7427673339844	250.6030426025391	2950.964111328125	344.62646484375	252.0184478759766	2945.339111328125	226.3860473632812	86.3138427734375	2902.660888671875	297.7274475097656	70.20716094970703	2872.765625	243.122314453125	36.1845703125	3084.846435546875	258.7401428222656	27.64091873168945	3078.485107421875	296.4134216308594	29.70565986633301	3028.8564453125	340.1047668457031	21.83633232116699	2887.328857421875	54.5747184753418	713.85791015625	2947.4130859375	44.61602783203125	703.1121826171875	2963.427001953125	52.66930770874023	618.0942993164062	2901.879150390625	69.57942199707031	613.8906860351562	2938.1357421875	75.51833343505859	510.9530639648438	2964.885009765625	192.5530395507812	483.8546142578125	2797.358154296875	73.44656372070312	427.8012084960938	2845.38818359375	60.48763275146484	395.6493530273438	2764.472900390625	81.93312835693359	324.899169921875	2731.5166015625	88.19675445556641	379.007568359375	2582.144775390625	139.4602508544922	257.5696716308594	2629.670654296875	203.5184478759766	225.8399047851562	2551.2431640625	196.6453247070312	266.63232421875	2613.289794921875	150.5084838867188	90.33908081054688	2611.952392578125	119.7111053466797	91.16104125976562	2582.05810546875	84.20334625244141	123.6697463989258	
564	2.815	2777.72509765625	268.84375	1007.422912597656	2772.159423828125	190.4064788818359	1004.846740722656	2803.20068359375	353.3218688964844	1067.098510742188	2794.554443359375	92.29821014404297	1080.7802734375	2975.13134765625	342.1343078613281	992.580810546875	2956.475830078125	84.49980926513672	979.7686767578125	2921.62451171875	237.0817413330078	1454.5810546875	2990.495361328125	226.9375152587891	1249.4619140625	2786.585205078125	237.9358367919922	1553.240112304688	2736.698974609375	248.4384155273438	1440.171508789062	2739.132568359375	230.6400909423828	1307.39501953125	2745.149658203125	232.9472808837891	1262.68212890625	2796.920166015625	-13.29092025756836	1343.70556640625	2871.725341796875	-7.012932777404785	1339.893310546875	2880.54736328125	-22.49378204345703	1268.064453125	2807.66259765625	-30.49686431884766	1259.999877929688	2839.068359375	-35.69309234619141	1173.442993164062	2826.6572265625	44.82002258300781	1159.935424804688	2945.322998046875	166.0911407470703	1712.203735351562	2989.44287109375	200.5853118896484	1720.63720703125	2991.4755859375	282.3069152832031	1714.905029296875	2942.60107421875	320.6876831054688	1698.402221679688	2831.395263671875	53.42424392700195	1511.8017578125	2831.430419921875	427.0233154296875	1495.393310546875	2860.8857421875	469.5770568847656	1333.109252929688	2787.238525390625	476.7386779785156	1319.266357421875	2791.20068359375	488.5788269042969	1233.4609375	2864.13623046875	480.46044921875	1246.164184570312	2826.119873046875	485.7146606445312	1161.7978515625	2788.613037109375	417.9508666992188	1151.1298828125	2925.162109375	455.4020690917969	946.5142211914062	2925.472900390625	501.9949340820312	952.3074951171875	2912.6826171875	473.3154296875	920.448486328125	2883.70654296875	444.0908813476562	884.475341796875	2871.223388671875	514.1721801757812	887.63134765625	2955.6103515625	-90.36494445800781	1016.691040039062	2980.90869140625	-51.67636871337891	1014.747375488281	2972.23828125	-64.46583557128906	983.5587158203125	2986.159912109375	-38.6993408203125	929.4190673828125	2943.1318359375	-88.87648773193359	930.5181274414062	2974.404541015625	385.4674072265625	711.6510620117188	2924.531494140625	386.8608093261719	704.9507446289062	2931.322265625	364.5335083007812	599.7227783203125	2994.2421875	367.6131591796875	613.5619506835938	2969.88330078125	342.8631896972656	516.1140747070312	2954.38916015625	224.3437957763672	505.1875305175781	2955.6826171875	360.0863037109375	333.5850524902344	2893.8125	356.8277587890625	336.82861328125	2888.139892578125	339.1841125488281	251.1620941162109	2952.217529296875	344.6578674316406	252.0228729248047	2945.3642578125	226.4449615478516	86.28839111328125	2902.75341796875	297.7326354980469	70.23124694824219	2872.875	242.9212951660156	36.1402473449707	3084.856201171875	258.7444458007812	27.54789161682129	3078.61767578125	296.4547424316406	29.69101524353027	3028.908447265625	340.1656494140625	21.80927658081055	2899.70751953125	55.02711868286133	715.4669189453125	2960.0283203125	44.90156173706055	705.5474853515625	2977.3056640625	52.5853157043457	620.6865844726562	2915.965576171875	69.91205596923828	615.7059326171875	2953.753662109375	75.54888916015625	513.3250732421875	2979.501220703125	193.1459350585938	485.6094360351562	2814.774169921875	74.18008422851562	428.4140930175781	2863.0078125	61.04549789428711	397.2044677734375	2783.04296875	82.1219482421875	325.1856994628906	2749.5048828125	88.74551391601562	378.9976806640625	2601.86083984375	139.0074310302734	255.1697387695312	2649.933837890625	203.6448974609375	224.3495330810547	2569.91015625	196.4498748779297	262.6847229003906	2638.678466796875	150.0507659912109	88.99008178710938	2637.11376953125	119.4791793823242	89.60581970214844	2605.884521484375	84.05236053466797	120.9726409912109	
